#!OML:ASF E:\Mandelcareful walks\Project 1\Capture day 1\Session 1\Subject1.ASF
:FULLY-SPECIFIED
:DEGREES
400
root 6.6441 15.7551 -0.878293 -144.376 -80.3549 150.912
lowerback 31.9636 0.451062 -1.84068
upperback 5.54013 -0.823481 -0.994506
thorax -10.3928 -0.60571 0.290082
lowerneck -29.5532 -5.77154 -10.3384
upperneck 25.3451 -4.5535 3.09604
head 13.8651 -2.57672 2.00648
rclavicle 8.54774e-015 4.13472e-014
rhumerus -21.8553 -0.595333 -86.7126
rradius 77.6988
rwrist -14.2947
rhand -11.6983 -28.6019
rfingers 7.12502
rthumb 14.3477 -58.0861
lclavicle 8.54774e-015 4.13472e-014
lhumerus -19.327 -27.5015 91.1544
lradius 75.4241
lwrist 11.3181
lhand -21.4339 -13.3829
lfingers 7.12502
lthumb 4.95539 16.5392
rfemur -29.3405 -7.06557 1.81587
rtibia 46.73
rfoot -18.4011 -6.13899
rtoes -11.1422
lfemur -36.0578 15.2135 -18.3152
ltibia 54.7137
lfoot -19.4055 5.34926
ltoes -4.40287
401
root 6.6463 15.7527 -0.843985 -145.655 -80.3614 152.237
lowerback 32.0574 0.496623 -1.83911
upperback 5.56404 -0.770011 -0.971578
thorax -10.4046 -0.583272 0.294353
lowerneck -29.4336 -6.11746 -10.5513
upperneck 24.9405 -5.019 3.31747
head 13.7215 -2.75434 2.03302
rclavicle 4.37326e-015 -1.07344e-014
rhumerus -21.7394 -0.52763 -86.7348
rradius 77.5985
rwrist -14.2332
rhand -11.8314 -28.224
rfingers 7.12502
rthumb 14.2195 -57.7172
lclavicle 4.37326e-015 -1.07344e-014
lhumerus -19.1406 -27.5515 91.0121
lradius 75.4391
lwrist 11.403
lhand -20.6305 -14.0429
lfingers 7.12502
lthumb 5.73111 15.8596
rfemur -29.3274 -6.88302 1.92911
rtibia 46.4611
rfoot -18.1404 -6.26865
rtoes -11.0529
lfemur -36.1882 15.3258 -18.2485
ltibia 54.7926
lfoot -19.4081 5.35231
ltoes -4.31735
402
root 6.63097 15.7669 -0.805688 -144.257 -80.487 150.853
lowerback 32.0846 0.421995 -1.91947
upperback 5.49019 -0.890648 -1.01047
thorax -10.4956 -0.632111 0.341477
lowerneck -29.0722 -6.59264 -10.9597
upperneck 24.6047 -5.64412 3.6207
head 13.5882 -3.01421 2.09399
rclavicle -2.48481e-014 1.03368e-014
rhumerus -21.8218 -0.64958 -86.7391
rradius 77.6382
rwrist -14.2697
rhand -11.6194 -28.9122
rfingers 7.12502
rthumb 14.4238 -58.391
lclavicle -2.48481e-014 1.03368e-014
lhumerus -19.3458 -27.5358 91.1142
lradius 75.5514
lwrist 11.3154
lhand -19.7119 -14.4173
lfingers 7.12502
lthumb 6.61796 15.4593
rfemur -28.9768 -7.31261 1.62815
rtibia 46.0952
rfoot -18.0097 -6.12097
rtoes -11.1958
lfemur -36.1982 15.0748 -18.5567
ltibia 54.7788
lfoot -19.4825 5.47425
ltoes -4.32465
403
root 6.60696 15.7779 -0.766874 -144.173 -80.4001 150.887
lowerback 32.0428 0.452467 -2.06289
upperback 5.2934 -0.88243 -1.00627
thorax -10.6956 -0.612922 0.420203
lowerneck -28.5175 -7.14998 -11.5733
upperneck 24.2198 -6.38632 4.12628
head 13.431 -3.31845 2.24727
rclavicle -7.7526e-015 1.86858e-014
rhumerus -22.1108 -0.603431 -86.665
rradius 77.5033
rwrist -14.2368
rhand -11.6472 -28.8555
rfingers 7.12502
rthumb 14.3969 -58.3362
lclavicle -7.7526e-015 1.86858e-014
lhumerus -19.7738 -27.4454 91.3903
lradius 75.5592
lwrist 11.1592
lhand -20.6608 -13.9766
lfingers 7.12502
lthumb 5.70183 15.9267
rfemur -28.8647 -7.464 1.40859
rtibia 45.7934
rfoot -17.9485 -5.93184
rtoes -11.4399
lfemur -36.2655 15.0645 -18.7803
ltibia 54.8205
lfoot -19.6509 5.61688
ltoes -4.17765
404
root 6.58331 15.7829 -0.731977 -145.865 -80.2606 152.355
lowerback 31.1407 0.528353 -1.96315
upperback 6.44856 -0.774899 -1.06554
thorax -9.78684 -0.609396 0.273215
lowerneck -28.2139 -7.83113 -12.1715
upperneck 22.9733 -7.33188 4.99596
head 13.0134 -3.63729 2.49199
rclavicle -2.31584e-014 -1.81888e-014
rhumerus -21.129 -0.568773 -86.6904
rradius 77.2635
rwrist -14.1464
rhand -11.9334 -28.1599
rfingers 7.12502
rthumb 14.1212 -57.66
lclavicle -2.31584e-014 -1.81888e-014
lhumerus -18.6681 -27.5034 90.8549
lradius 75.43
lwrist 11.2369
lhand -21.6832 -13.7581
lfingers 7.12502
lthumb 4.71467 16.1694
rfemur -28.4752 -7.19954 1.36081
rtibia 45.5412
rfoot -17.9716 -5.90703
rtoes -11.978
lfemur -35.9082 15.2952 -18.7541
ltibia 54.9045
lfoot -19.8504 5.62767
ltoes -4.69702
405
root 6.60587 15.778 -0.711871 -146.416 -80.7231 153.299
lowerback 32.1897 0.379157 -1.88376
upperback 5.18848 -0.897037 -0.878541
thorax -10.8728 -0.618336 0.466788
lowerneck -27.0952 -8.24898 -12.8658
upperneck 22.5614 -7.9819 5.66389
head 12.771 -3.90527 2.74958
rclavicle 5.76476e-015 6.4605e-015
rhumerus -22.275 -0.22584 -86.587
rradius 77.4536
rwrist -14.2128
rhand -11.8996 -28.3367
rfingers 7.12502
rthumb 14.1537 -57.8346
lclavicle 5.76476e-015 6.4605e-015
lhumerus -19.9566 -27.2811 91.4346
lradius 75.5774
lwrist 11.2236
lhand -21.6039 -13.8565
lfingers 7.12502
lthumb 4.79122 16.0694
rfemur -28.7972 -7.31949 1.76189
rtibia 45.4478
rfoot -17.7671 -6.21321
rtoes -12.0712
lfemur -36.6614 15.1755 -18.5764
ltibia 55.1056
lfoot -19.6644 5.49393
ltoes -5.04011
406
root 6.63006 15.7709 -0.695243 -146.977 -81.1427 154.227
lowerback 31.9475 0.274241 -1.75566
upperback 5.22016 -0.959814 -0.767668
thorax -10.7378 -0.649419 0.536927
lowerneck -26.9834 -8.78048 -13.1356
upperneck 22.2053 -8.72824 6.04575
head 12.721 -4.19784 2.78807
rclavicle 3.61788e-014 1.96797e-014
rhumerus -21.9074 -0.0958766 -86.5639
rradius 77.0507
rwrist -14.1447
rhand -12.1689 -27.8467
rfingers 7.12502
rthumb 13.8942 -57.3626
lclavicle 3.61788e-014 1.96797e-014
lhumerus -19.6133 -27.3161 91.1955
lradius 75.5365
lwrist 11.327
lhand -21.474 -14.003
lfingers 7.12502
lthumb 4.91671 15.92
rfemur -29.1648 -7.43567 2.14185
rtibia 45.432
rfoot -17.5445 -6.45952
rtoes -11.9685
lfemur -37.3749 15.0324 -18.3642
ltibia 55.2995
lfoot -19.5278 5.33839
ltoes -4.53087
407
root 6.62504 15.7687 -0.671964 -147.118 -81.1315 154.508
lowerback 31.8997 0.310466 -1.91319
upperback 5.1558 -0.958135 -0.7586
thorax -10.7873 -0.639962 0.63046
lowerneck -26.6939 -9.19292 -13.3938
upperneck 21.8303 -9.31815 6.35966
head 12.6147 -4.43635 2.83318
rclavicle 6.80837e-015 1.72943e-014
rhumerus -21.8385 -0.0102263 -86.5306
rradius 76.7404
rwrist -14.0926
rhand -12.5586 -26.9678
rfingers 7.12502
rthumb 13.5186 -56.509
lclavicle 6.80837e-015 1.72943e-014
lhumerus -19.6723 -27.207 91.166
lradius 75.5706
lwrist 11.3209
lhand -21.3326 -14.1669
lfingers 7.12502
lthumb 5.05321 15.7528
rfemur -29.3446 -7.43682 2.08936
rtibia 45.5038
rfoot -17.599 -6.50291
rtoes -12.4838
lfemur -37.5756 15.0423 -18.4678
ltibia 55.4215
lfoot -19.6426 5.29671
ltoes -4.33995
408
root 6.623 15.7732 -0.652423 -144.936 -81.218 152.472
lowerback 31.7809 0.280157 -2.29807
upperback 5.13062 -1.11424 -0.746437
thorax -10.7559 -0.697075 0.907346
lowerneck -26.3954 -9.61379 -13.5863
upperneck 21.4314 -9.91678 6.57263
head 12.4923 -4.68819 2.82681
rclavicle 1.94809e-014 -1.49089e-014
rhumerus -21.7442 0.0790707 -86.4786
rradius 76.7245
rwrist -14.2193
rhand -12.58 -26.9246
rfingers 7.12502
rthumb 13.4981 -56.4671
lclavicle 1.94809e-014 -1.49089e-014
lhumerus -19.6153 -26.9108 91.133
lradius 75.6122
lwrist 11.1679
lhand -20.9201 -13.8652
lfingers 7.12502
lthumb 5.45152 16.0447
rfemur -29.3251 -7.74244 1.76636
rtibia 45.3465
rfoot -17.5239 -6.44778
rtoes -12.5234
lfemur -37.7682 14.847 -18.8513
ltibia 55.399
lfoot -19.621 5.23945
ltoes -4.45718
409
root 6.6393 15.774 -0.639872 -141.365 -81.5314 149.251
lowerback 31.1462 0.157478 -2.55158
upperback 5.65358 -1.32408 -0.793539
thorax -10.6787 -0.786796 1.13684
lowerneck -26.1784 -10.0563 -13.8133
upperneck 20.8929 -10.5617 6.9834
head 12.3539 -4.93546 2.88981
rclavicle -1.76918e-014 -2.28602e-014
rhumerus -21.3819 -0.0861832 -86.482
rradius 76.6433
rwrist -14.2422
rhand -12.3933 -27.2665
rfingers 7.12502
rthumb 13.6779 -56.7971
lclavicle -1.76918e-014 -2.28602e-014
lhumerus -19.2274 -26.8845 90.9132
lradius 75.6542
lwrist 11.1162
lhand -20.0837 -12.7731
lfingers 7.12502
lthumb 6.25896 17.1144
rfemur -29.4833 -8.29653 1.50115
rtibia 45.2079
rfoot -17.3163 -6.38051
rtoes -11.6749
lfemur -38.3031 14.4796 -19.2598
ltibia 55.3713
lfoot -19.4489 5.0385
ltoes -3.96354
410
root 6.57155 15.7899 -0.594549 -147.876 -80.8174 154.774
lowerback 31.9066 0.50009 -2.18794
upperback 5.59325 -0.866464 -0.901245
thorax -10.3029 -0.618544 0.59073
lowerneck -25.9784 -10.4123 -14.0258
upperneck 20.625 -11.0835 7.30836
head 12.3092 -5.14242 2.94245
rclavicle -1.86858e-014 -1.51076e-014
rhumerus -21.3311 -0.310174 -86.5113
rradius 76.6177
rwrist -14.1164
rhand -12.0753 -27.5698
rfingers 7.12502
rthumb 13.9844 -57.0795
lclavicle -1.86858e-014 -1.51076e-014
lhumerus -19.1559 -27.02 90.7657
lradius 75.6724
lwrist 11.1822
lhand -19.786 -11.8302
lfingers 7.12502
lthumb 6.54642 18.0486
rfemur -28.3476 -7.37544 1.53589
rtibia 44.819
rfoot -17.333 -5.90231
rtoes -11.5325
lfemur -36.5552 15.0345 -18.7389
ltibia 55.3122
lfoot -20.1734 5.21696
ltoes -3.04819
411
root 6.581 15.7847 -0.574925 -148.901 -80.9445 156.078
lowerback 31.9359 0.479533 -2.08651
upperback 5.36582 -0.831465 -0.824308
thorax -10.5688 -0.59095 0.606018
lowerneck -25.6555 -10.6225 -14.1659
upperneck 20.4816 -11.3868 7.37417
head 12.2444 -5.28657 2.93407
rclavicle 3.47873e-016 -1.18774e-014
rhumerus -21.5924 -0.262667 -86.421
rradius 76.68
rwrist -14.076
rhand -11.9806 -27.7548
rfingers 7.12502
rthumb 14.0757 -57.2581
lclavicle 3.47873e-016 -1.18774e-014
lhumerus -19.3824 -27.0057 90.8396
lradius 75.5864
lwrist 11.1941
lhand -20.9213 -12.4041
lfingers 7.12502
lthumb 5.45033 17.5058
rfemur -28.5911 -7.4079 1.76803
rtibia 44.5811
rfoot -17.2105 -6.08052
rtoes -12.432
lfemur -36.9684 15.0455 -18.6364
ltibia 55.3848
lfoot -20.1495 5.20034
ltoes -2.88997
412
root 6.58102 15.7859 -0.555463 -148.21 -81.024 155.482
lowerback 31.9576 0.467612 -2.24434
upperback 5.29095 -0.890045 -0.794447
thorax -10.6567 -0.608285 0.744753
lowerneck -25.3571 -10.7824 -14.3141
upperneck 20.1525 -11.6368 7.58485
head 12.1174 -5.3882 2.99285
rclavicle 2.85753e-014 -1.3418e-014
rhumerus -21.6688 -0.148168 -86.3236
rradius 76.6994
rwrist -14.1426
rhand -12.0618 -27.838
rfingers 7.12502
rthumb 13.9974 -57.3468
lclavicle 2.85753e-014 -1.3418e-014
lhumerus -19.4571 -26.8775 90.892
lradius 75.5159
lwrist 11.0821
lhand -21.8882 -13.2676
lfingers 7.12502
lthumb 4.51675 16.6643
rfemur -28.512 -7.55842 1.65507
rtibia 44.2278
rfoot -16.9723 -6.16913
rtoes -13.0618
lfemur -37.1668 14.9804 -18.814
ltibia 55.4203
lfoot -20.1071 5.12649
ltoes -3.0199
413
root 6.57096 15.7951 -0.534104 -146.892 -81.125 154.197
lowerback 31.8881 0.394268 -2.32603
upperback 5.3199 -1.01299 -0.835118
thorax -10.5926 -0.663642 0.790416
lowerneck -25.4049 -10.9308 -14.4236
upperneck 20.0287 -11.8396 7.78366
head 12.1248 -5.45863 3.04057
rclavicle -1.49089e-015 7.60351e-015
rhumerus -21.6286 -0.126513 -86.3274
rradius 76.6703
rwrist -14.1765
rhand -12.1807 -27.759
rfingers 7.12502
rthumb 13.8829 -57.2756
lclavicle -1.49089e-015 7.60351e-015
lhumerus -19.4373 -26.7246 90.8573
lradius 75.4918
lwrist 11.0524
lhand -21.9727 -13.5718
lfingers 7.12502
lthumb 4.43509 16.3617
rfemur -28.2923 -7.77205 1.41607
rtibia 43.9806
rfoot -16.8568 -6.07107
rtoes -12.8081
lfemur -37.2387 14.7815 -19.0652
ltibia 55.4569
lfoot -20.173 5.0856
ltoes -3.3328
